<svg xmlns="http://www.w3.org/2000/svg" xmlns:xlink="http://www.w3.org/1999/xlink" width="166" height="70.32" viewBox="0 0 166 70.32"><defs><style>.a{mask:url(#a)}.b,.d,.f,.h,.j,.l,.n,.p,.r,.t{mix-blend-mode:multiply}.b{fill:url(#c)}.c{mask:url(#d)}.d{fill:url(#f)}.e{mask:url(#g)}.f{fill:url(#i)}.g{mask:url(#j)}.h{fill:url(#l)}.i{mask:url(#m)}.j{fill:url(#o)}.k{mask:url(#p)}.l{fill:url(#r)}.m{mask:url(#s)}.n{fill:url(#u)}.o{mask:url(#v)}.p{fill:url(#x)}.q{mask:url(#y)}.r{fill:url(#aa)}.s{mask:url(#ab)}.t{fill:url(#ad)}.u{isolation:isolate}.v{fill:url(#ae)}.w{fill:url(#af)}.x{fill:url(#ag)}.y{fill:url(#ah)}.z{fill:url(#ai)}.aa{fill:url(#aj)}.ab{fill:url(#ak)}.ac{fill:url(#al)}.ad{fill:url(#am)}.ae{fill:url(#an)}.af{fill:url(#ao)}.ag{fill:url(#ap)}.ah{fill:url(#aq)}.ai{fill:url(#ar)}.aj{fill:url(#as)}.ak{fill:url(#at)}.al{mask:url(#au)}.am,.ap,.as,.av,.ay,.bb,.be,.bh,.bk,.bn{opacity:.35}.am{fill:url(#aw)}.an{fill:url(#ax)}.ao{mask:url(#ay)}.ap{fill:url(#ba)}.aq{fill:url(#bb)}.ar{mask:url(#bc)}.as{fill:url(#be)}.at{fill:url(#bf)}.au{mask:url(#bg)}.av{fill:url(#bi)}.aw{fill:url(#bj)}.ax{mask:url(#bk)}.ay{fill:url(#bm)}.az{fill:url(#bn)}.ba{mask:url(#bo)}.bb{fill:url(#bq)}.bc{fill:url(#br)}.bd{mask:url(#bs)}.be{fill:url(#bu)}.bf{fill:url(#bv)}.bg{mask:url(#bw)}.bh{fill:url(#by)}.bi{fill:url(#bz)}.bj{mask:url(#ca)}.bk{fill:url(#cc)}.bl{fill:url(#cd)}.bm{mask:url(#ce)}.bn{fill:url(#cg)}.bo{filter:url(#cf)}.bp{filter:url(#cb)}.bq{filter:url(#bx)}.br{filter:url(#bt)}.bs{filter:url(#bp)}.bt{filter:url(#bl)}.bu{filter:url(#bh)}.bv{filter:url(#bd)}.bw{filter:url(#az)}.bx{filter:url(#av)}.by{filter:url(#ac)}.bz{filter:url(#z)}.ca{filter:url(#w)}.cb{filter:url(#t)}.cc{filter:url(#q)}.cd{filter:url(#n)}.ce{filter:url(#k)}.cf{filter:url(#h)}.cg{filter:url(#e)}.ch{filter:url(#b)}</style><filter id="b" x="21.87" y="-8241.83" width="9.8" height="32766" filterUnits="userSpaceOnUse" color-interpolation-filters="sRGB"><feFlood flood-color="#fff" result="bg"/><feBlend in="SourceGraphic" in2="bg"/></filter><linearGradient id="c" x1="155.07" y1="400.35" x2="155.07" y2="404.6" gradientTransform="rotate(180 90.915 231.065)" gradientUnits="userSpaceOnUse"><stop offset="0" stop-color="#fff"/><stop offset=".09" stop-color="#f8f8f8"/><stop offset=".22" stop-color="#e5e5e5"/><stop offset=".37" stop-color="#c6c6c6"/><stop offset=".54" stop-color="#9b9b9b"/><stop offset=".72" stop-color="#646464"/><stop offset=".91" stop-color="#222"/><stop offset="1"/></linearGradient><filter id="e" x="130.49" y="-8241.83" width="3.13" height="32766" filterUnits="userSpaceOnUse" color-interpolation-filters="sRGB"><feFlood flood-color="#fff" result="bg"/><feBlend in="SourceGraphic" in2="bg"/></filter><linearGradient id="f" x1="49.78" y1="400.35" x2="49.78" y2="404.6" xlink:href="#c"/><filter id="h" x="115" y="-8241.83" width="10.06" height="32766" filterUnits="userSpaceOnUse" color-interpolation-filters="sRGB"><feFlood flood-color="#fff" result="bg"/><feBlend in="SourceGraphic" in2="bg"/></filter><linearGradient id="i" x1="61.8" y1="400.35" x2="61.8" y2="404.6" xlink:href="#c"/><filter id="k" x="149.41" y="-8241.83" width="16.49" height="32766" filterUnits="userSpaceOnUse" color-interpolation-filters="sRGB"><feFlood flood-color="#fff" result="bg"/><feBlend in="SourceGraphic" in2="bg"/></filter><linearGradient id="l" x1="24.18" y1="400.35" x2="24.18" y2="404.6" xlink:href="#c"/><filter id="n" x="94.54" y="-8241.83" width="17.61" height="32766" filterUnits="userSpaceOnUse" color-interpolation-filters="sRGB"><feFlood flood-color="#fff" result="bg"/><feBlend in="SourceGraphic" in2="bg"/></filter><linearGradient id="o" x1="78.48" y1="400.35" x2="78.48" y2="404.6" xlink:href="#c"/><filter id="q" x="-.05" y="-8241.83" width="16.48" height="32766" filterUnits="userSpaceOnUse" color-interpolation-filters="sRGB"><feFlood flood-color="#fff" result="bg"/><feBlend in="SourceGraphic" in2="bg"/></filter><linearGradient id="r" x1="173.64" y1="400.35" x2="173.64" y2="404.6" xlink:href="#c"/><filter id="t" x="58.17" y="-8241.83" width="17.61" height="32766" filterUnits="userSpaceOnUse" color-interpolation-filters="sRGB"><feFlood flood-color="#fff" result="bg"/><feBlend in="SourceGraphic" in2="bg"/></filter><linearGradient id="u" x1="114.86" y1="400.35" x2="114.86" y2="404.6" xlink:href="#c"/><filter id="w" x="76.76" y="-8241.83" width="16.53" height="32766" filterUnits="userSpaceOnUse" color-interpolation-filters="sRGB"><feFlood flood-color="#fff" result="bg"/><feBlend in="SourceGraphic" in2="bg"/></filter><linearGradient id="x" x1="96.81" y1="400.35" x2="96.81" y2="404.6" xlink:href="#c"/><filter id="z" x="42.81" y="-8241.83" width="9.8" height="32766" filterUnits="userSpaceOnUse" color-interpolation-filters="sRGB"><feFlood flood-color="#fff" result="bg"/><feBlend in="SourceGraphic" in2="bg"/></filter><linearGradient id="aa" x1="134.12" y1="400.35" x2="134.12" y2="404.6" xlink:href="#c"/><filter id="ac" x="145.01" y="-8241.83" width="3.14" height="32766" filterUnits="userSpaceOnUse" color-interpolation-filters="sRGB"><feFlood flood-color="#fff" result="bg"/><feBlend in="SourceGraphic" in2="bg"/></filter><linearGradient id="ad" x1="35.26" y1="400.35" x2="35.26" y2="404.6" xlink:href="#c"/><linearGradient id="ae" x1="-316.7" y1="-250.05" x2="-309.67" y2="-243.02" gradientTransform="matrix(.96 .3 -.3 .96 338.11 359.45)" gradientUnits="userSpaceOnUse"><stop offset="0" stop-color="#eb1d24"/><stop offset=".04" stop-color="#ec2b32"/><stop offset=".24" stop-color="#f26b6f"/><stop offset=".43" stop-color="#f7a0a3"/><stop offset=".61" stop-color="#fac9cb"/><stop offset=".77" stop-color="#fde7e7"/><stop offset=".9" stop-color="#fef9f9"/><stop offset="1" stop-color="#fff"/></linearGradient><linearGradient id="af" x1="-331.23" y1="-271.96" x2="-332.73" y2="-241.57" gradientTransform="matrix(.96 .3 -.3 .96 338.11 359.45)" gradientUnits="userSpaceOnUse"><stop offset="0" stop-color="#eb1d24"/><stop offset=".03" stop-color="#ed2f35"/><stop offset=".13" stop-color="#f15f64"/><stop offset=".23" stop-color="#f58a8e"/><stop offset=".33" stop-color="#f8aeb1"/><stop offset=".44" stop-color="#facccd"/><stop offset=".55" stop-color="#fce2e3"/><stop offset=".68" stop-color="#fef2f3"/><stop offset=".81" stop-color="#fffcfc"/><stop offset="1" stop-color="#fff"/></linearGradient><linearGradient id="ag" x1="-333.54" y1="-219.23" x2="-333.54" y2="-247.29" gradientTransform="matrix(.96 .3 -.3 .96 338.11 359.45)" gradientUnits="userSpaceOnUse"><stop offset="0" stop-color="#eb1d24"/><stop offset=".53" stop-color="#bf1c21"/><stop offset="1" stop-color="#941b1e"/></linearGradient><linearGradient id="ah" x1="-345.77" y1="-228.84" x2="-351.62" y2="-264.87" gradientTransform="matrix(.96 .3 -.3 .96 338.11 359.45)" gradientUnits="userSpaceOnUse"><stop offset="0" stop-color="#eb1d24"/><stop offset=".19" stop-color="#e11d23"/><stop offset=".51" stop-color="#c81c22"/><stop offset=".91" stop-color="#9e1b1f"/><stop offset="1" stop-color="#941b1e"/></linearGradient><linearGradient id="ai" x1="-362.86" y1="-219.23" x2="-362.86" y2="-248.12" gradientTransform="matrix(.96 .3 -.3 .96 338.11 359.45)" gradientUnits="userSpaceOnUse"><stop offset="0" stop-color="#eb1d24"/><stop offset=".3" stop-color="#cd1c22"/><stop offset=".76" stop-color="#a41b1f"/><stop offset="1" stop-color="#941b1e"/></linearGradient><linearGradient id="aj" x1="32.36" y1="57.52" x2="32.36" y2="70.37" gradientUnits="userSpaceOnUse"><stop offset="0" stop-color="#eb1d24"/><stop offset=".21" stop-color="#e71d24"/><stop offset=".43" stop-color="#db1d23"/><stop offset=".65" stop-color="#c61c21"/><stop offset=".86" stop-color="#aa1c20"/><stop offset="1" stop-color="#941b1e"/></linearGradient><linearGradient id="ak" x1="21.25" y1="57.52" x2="21.25" y2="70.37" xlink:href="#aj"/><linearGradient id="al" x1="67.11" y1="58.02" x2="67.11" y2="70.37" xlink:href="#aj"/><linearGradient id="am" x1="85.55" y1="57.99" x2="85.55" y2="70.15" xlink:href="#aj"/><linearGradient id="an" x1="47.73" y1="57.52" x2="47.73" y2="70.37" xlink:href="#aj"/><linearGradient id="ao" x1="139.42" y1="57.9" x2="139.42" y2="70.24" xlink:href="#aj"/><linearGradient id="ap" x1="120.05" y1="57.35" x2="120.05" y2="70.37" xlink:href="#aj"/><linearGradient id="aq" x1="157.63" y1="58.04" x2="157.63" y2="70.37" xlink:href="#aj"/><linearGradient id="ar" x1="103.35" y1="58.02" x2="103.35" y2="70.37" xlink:href="#aj"/><linearGradient id="as" x1="8.16" y1="58.12" x2="8.16" y2="70.45" xlink:href="#aj"/><linearGradient id="at" x1="26.77" y1="57.52" x2="26.77" y2="70.36" xlink:href="#ah"/><filter id="av" x="21.87" y="57.52" width="9.8" height="4.25" filterUnits="userSpaceOnUse" color-interpolation-filters="sRGB"><feFlood flood-color="#fff" result="bg"/><feBlend in="SourceGraphic" in2="bg"/></filter><mask id="au" x="21.97" y="57.4" width="9.8" height="4.25" maskUnits="userSpaceOnUse"><path class="bx a b" d="M30.21 59.42a5.41 5.41 0 0 0-.88-1 3.41 3.41 0 0 0-1.06-.64 4 4 0 0 0-1.43-.23 4.35 4.35 0 0 0-1.47.22 3.64 3.64 0 0 0-1.11.63 5.32 5.32 0 0 0-.91 1c-.28.39-.57.83-.87 1.32l-.62 1.07h3.71a3 3 0 0 1 1.22-1.36 2.75 2.75 0 0 1 1.28 1.36h3.59l-.56-1q-.47-.79-.89-1.37z" transform="translate(.11 -.12)"/></mask><linearGradient id="aw" x1="155.07" y1="400.35" x2="155.07" y2="404.6" gradientTransform="rotate(180 90.915 231.065)" gradientUnits="userSpaceOnUse"><stop offset="0" stop-color="#fff"/><stop offset=".1" stop-color="#f8f8f8"/><stop offset=".24" stop-color="#e6e5e6"/><stop offset=".4" stop-color="#c7c6c7"/><stop offset=".58" stop-color="#9d9b9c"/><stop offset=".78" stop-color="#676465"/><stop offset=".99" stop-color="#262223"/><stop offset="1" stop-color="#231f20"/></linearGradient><linearGradient id="ax" x1="66.97" y1="58.03" x2="66.97" y2="70.36" xlink:href="#ah"/><filter id="az" x="58.17" y="58.03" width="17.61" height="3.75" filterUnits="userSpaceOnUse" color-interpolation-filters="sRGB"><feFlood flood-color="#fff" result="bg"/><feBlend in="SourceGraphic" in2="bg"/></filter><mask id="ay" x="58.27" y="57.9" width="17.61" height="3.75" maskUnits="userSpaceOnUse"><path class="bw m n" d="M74.52 59a4 4 0 0 0-1.41-.7 6.75 6.75 0 0 0-1.78-.3H58.17v3.75h3.45v-.89h9.65a.92.92 0 0 1 1 .91h3.48a3.92 3.92 0 0 0-.33-1.63 3.16 3.16 0 0 0-.9-1.14z" transform="translate(.11 -.12)"/></mask><linearGradient id="ba" x1="114.86" y1="400.35" x2="114.86" y2="404.6" xlink:href="#aw"/><linearGradient id="bb" x1="85.13" y1="57.99" x2="85.13" y2="70.15" xlink:href="#ah"/><filter id="bd" x="76.76" y="58.11" width="16.53" height="3.66" filterUnits="userSpaceOnUse" color-interpolation-filters="sRGB"><feFlood flood-color="#fff" result="bg"/><feBlend in="SourceGraphic" in2="bg"/></filter><mask id="bc" x="76.86" y="57.99" width="16.53" height="3.66" maskUnits="userSpaceOnUse"><path class="bv o p" d="M93.29 60.83v-2.71H76.76v2.71h7.15v.94h3.07v-.94h6.31z" transform="translate(.11 -.12)"/></mask><linearGradient id="be" x1="96.81" y1="400.35" x2="96.81" y2="404.6" gradientTransform="rotate(180 90.97 231.005)" xlink:href="#aw"/><linearGradient id="bf" x1="47.71" y1="57.52" x2="47.71" y2="70.36" xlink:href="#ah"/><filter id="bh" x="42.81" y="57.52" width="9.8" height="4.25" filterUnits="userSpaceOnUse" color-interpolation-filters="sRGB"><feFlood flood-color="#fff" result="bg"/><feBlend in="SourceGraphic" in2="bg"/></filter><mask id="bg" x="42.92" y="57.4" width="9.8" height="4.25" maskUnits="userSpaceOnUse"><path class="bu q r" d="M51.16 59.42a5.53 5.53 0 0 0-.88-1 3.31 3.31 0 0 0-1.06-.64 4 4 0 0 0-1.43-.23 4.33 4.33 0 0 0-1.47.22 3.69 3.69 0 0 0-1.11.63 5.56 5.56 0 0 0-.91 1c-.28.39-.57.83-.87 1.32l-.61 1.07h3.71a2.94 2.94 0 0 1 1.22-1.36A2.75 2.75 0 0 1 49 61.77h3.59l-.57-1c-.29-.48-.59-.94-.86-1.35z" transform="translate(.11 -.12)"/></mask><linearGradient id="bi" x1="134.12" y1="400.35" x2="134.12" y2="404.6" xlink:href="#aw"/><linearGradient id="bj" x1="146.68" y1="57.9" x2="146.68" y2="70.24" xlink:href="#ah"/><filter id="bl" x="145.01" y="58.03" width="3.14" height="3.75" filterUnits="userSpaceOnUse" color-interpolation-filters="sRGB"><feFlood flood-color="#fff" result="bg"/><feBlend in="SourceGraphic" in2="bg"/></filter><mask id="bk" x="145.11" y="57.9" width="3.14" height="3.75" maskUnits="userSpaceOnUse"><path class="bt s t" d="M145.01 58.03h3.14v3.75h-3.14z" transform="translate(.11 -.12)"/></mask><linearGradient id="bm" x1="35.26" y1="400.35" x2="35.26" y2="404.6" gradientTransform="rotate(180 90.97 231.005)" xlink:href="#aw"/><linearGradient id="bn" x1="132.16" y1="57.9" x2="132.16" y2="70.24" xlink:href="#ah"/><filter id="bp" x="130.49" y="58.03" width="3.13" height="3.75" filterUnits="userSpaceOnUse" color-interpolation-filters="sRGB"><feFlood flood-color="#fff" result="bg"/><feBlend in="SourceGraphic" in2="bg"/></filter><mask id="bo" x="130.59" y="57.9" width="3.13" height="3.75" maskUnits="userSpaceOnUse"><path class="bs c d" d="M130.49 58.03h3.13v3.75h-3.13z" transform="translate(.11 -.12)"/></mask><linearGradient id="bq" x1="49.78" y1="400.35" x2="49.78" y2="404.6" gradientTransform="rotate(180 90.97 231.005)" xlink:href="#aw"/><linearGradient id="br" x1="120.03" y1="57.36" x2="120.03" y2="70.36" xlink:href="#ah"/><filter id="bt" x="115" y="57.52" width="10.06" height="4.25" filterUnits="userSpaceOnUse" color-interpolation-filters="sRGB"><feFlood flood-color="#fff" result="bg"/><feBlend in="SourceGraphic" in2="bg"/></filter><mask id="bs" x="115.1" y="57.4" width="10.06" height="4.25" maskUnits="userSpaceOnUse"><path class="br e f" d="M123.52 59.28a5.58 5.58 0 0 0-.89-1 3.5 3.5 0 0 0-1.07-.66l-.23-.06h-2.48l-.23.06a3.73 3.73 0 0 0-1.13.64 5.32 5.32 0 0 0-.92 1c-.29.4-.58.85-.88 1.34l-.69 1.17h3.75a3.22 3.22 0 0 1 1.31-1.49 3.06 3.06 0 0 1 1.36 1.49h3.63l-.64-1.1q-.47-.77-.89-1.39z" transform="translate(.11 -.12)"/></mask><linearGradient id="bu" x1="61.8" y1="400.35" x2="61.8" y2="404.6" xlink:href="#aw"/><linearGradient id="bv" x1="157.65" y1="58.04" x2="157.65" y2="70.35" xlink:href="#ah"/><filter id="bx" x="149.41" y="58.04" width="16.49" height="3.73" filterUnits="userSpaceOnUse" color-interpolation-filters="sRGB"><feFlood flood-color="#fff" result="bg"/><feBlend in="SourceGraphic" in2="bg"/></filter><mask id="bw" x="149.51" y="57.92" width="16.49" height="3.73" maskUnits="userSpaceOnUse"><path class="bq g h" d="M152 58.32a3.76 3.76 0 0 0-1.47.83 3.54 3.54 0 0 0-.91 1.42 5.29 5.29 0 0 0-.27 1.2h3.2a1 1 0 0 1 .84-1h12.45V58h-11.79a6.56 6.56 0 0 0-2.05.32z" transform="translate(.11 -.12)"/></mask><linearGradient id="by" x1="24.18" y1="400.35" x2="24.18" y2="404.6" xlink:href="#aw"/><linearGradient id="bz" x1="103.35" y1="58.03" x2="103.35" y2="70.35" xlink:href="#ah"/><filter id="cb" x="94.54" y="58.03" width="17.61" height="3.75" filterUnits="userSpaceOnUse" color-interpolation-filters="sRGB"><feFlood flood-color="#fff" result="bg"/><feBlend in="SourceGraphic" in2="bg"/></filter><mask id="ca" x="94.64" y="57.9" width="17.61" height="3.75" maskUnits="userSpaceOnUse"><path class="bp i j" d="M110.9 59a4 4 0 0 0-1.41-.7 6.62 6.62 0 0 0-1.79-.3H94.54v3.75H98v-.89h9.65a.92.92 0 0 1 1 .91h3.48a2.85 2.85 0 0 0-.33-1.63 3.24 3.24 0 0 0-.9-1.14z" transform="translate(.11 -.12)"/></mask><linearGradient id="cc" x1="78.48" y1="400.35" x2="78.48" y2="404.6" xlink:href="#aw"/><linearGradient id="cd" x1="8.19" y1="58.12" x2="8.19" y2="70.44" xlink:href="#ah"/><filter id="cf" x="-.05" y="58.12" width="16.48" height="3.65" filterUnits="userSpaceOnUse" color-interpolation-filters="sRGB"><feFlood flood-color="#fff" result="bg"/><feBlend in="SourceGraphic" in2="bg"/></filter><mask id="ce" x=".06" y="58" width="16.48" height="3.65" maskUnits="userSpaceOnUse"><path class="bo k l" d="M4 60.87h12.43v-2.75H4.58a6.63 6.63 0 0 0-2 .27 3.79 3.79 0 0 0-1.47.84 3.62 3.62 0 0 0-.91 1.42 5.32 5.32 0 0 0-.2 1.12h3.14a.94.94 0 0 1 .86-.9z" transform="translate(.11 -.12)"/></mask><linearGradient id="cg" x1="173.64" y1="400.35" x2="173.64" y2="404.6" xlink:href="#aw"/></defs><title>logoVertical</title><g class="u"><path class="v" d="M118.58 24.87l-1.79 8.98-13.23 3.76 1.72-8.95 13.3-3.79z"/><path class="w" d="M83.72 2.92L96.89 0l21.69 24.87-13.3 3.79-6.75-8.06-19.79 5.18-8.36-9.98 20.1-4.82-6.76-8.06z"/><path class="x" d="M105.28 28.66l-1.72 8.95-33.46 9.55 1.72-9.13 33.46-9.37z"/><path class="y" d="M49.28 10.56l34.44-7.64 6.76 8.06-20.1 4.82 8.36 9.98 19.79-5.18 6.75 8.06-33.5 9.44-22.5-27.54z"/><path class="z" d="M71.82 38.03l-1.72 9.13-22.68-27.25 1.9-9.42 22.5 27.54z"/></g><path class="aa" d="M29.6 64.21l3.31 6h3.84l-5-8.59h-3.56a34.92 34.92 0 0 1 1.41 2.59z"/><path class="ab" d="M17.04 70.25h4l3.26-6s.68-1.42 1.39-2.55h-3.71z"/><path class="ac" d="M72.42 61.7a1 1 0 0 1-1 1h-9.7v-1h-3.44v8.59h13.71a4.18 4.18 0 0 0 1-.14 4 4 0 0 0 1-.41 4.15 4.15 0 0 0 .85-.62 4.62 4.62 0 0 0 .68-.81 4 4 0 0 0 .44-1 3.63 3.63 0 0 0 .15-1.08 2.24 2.24 0 0 0 0-.67 3 3 0 0 0-.22-.56 4.46 4.46 0 0 0-.31-.51l-.34-.49a4.16 4.16 0 0 0 .7-2.31h-3.53s.01-.01.01.01zm-1 5.92h-9.7v-1.94h9.65a.92.92 0 0 1 1 1 1 1 0 0 1-1 .94z"/><path class="ad" d="M84.01 61.65h3.07v8.5h-3.07z"/><path class="ae" d="M50.55 64.21l.37.67h-6l.37-.68s.68-1.42 1.39-2.55h-3.76l-4.93 8.59h4l1.57-2.92h8.7l1.6 2.92h3.84l-5-8.59h-3.59c.74 1.14 1.44 2.56 1.44 2.56z"/><path class="af" d="M145.11 62.44h-11.39v-.79h-3.13v8.59h3.13v-4.66h11.39v4.66h3.14v-8.59h-3.14v.79z"/><path class="ag" d="M122.9 64.13l.38.69h-6.17l.37-.69s.65-1.35 1.34-2.47h-3.71l-4.93 8.59h4l1.6-3h8.82l1.62 3h3.89l-5-8.59h-3.63c.76 1.12 1.42 2.47 1.42 2.47z"/><path class="ah" d="M149.47 62.47v4.15a3.16 3.16 0 0 0 .35 1.46 3.7 3.7 0 0 0 .92 1.14 4.41 4.41 0 0 0 2.8 1h12.47v-2.7h-12.45a.92.92 0 0 1-.87-1.09v-4.48a1.77 1.77 0 0 1 0-.29h-3.2a7.77 7.77 0 0 0-.02.81z"/><path class="ai" d="M108.79 61.7a1 1 0 0 1-1 1h-9.68v-1h-3.46v8.59h3.46v-4.61h9.65a4.41 4.41 0 0 0 3.81-1.67 4.73 4.73 0 0 0 .7-2.31h-3.48z"/><path class="aj" d="M0 62.55v4.15a3.06 3.06 0 0 0 .35 1.46 3.78 3.78 0 0 0 .91 1.14 4.4 4.4 0 0 0 1.3.75 4.22 4.22 0 0 0 1.5.27h12.48V67.6H4.11a.92.92 0 0 1-.87-1.09v-4.49a2.18 2.18 0 0 1 0-.37H.11a6.91 6.91 0 0 0-.11.9z"/><path class="ak" d="M30.32 59.3a5.41 5.41 0 0 0-.88-1 3.41 3.41 0 0 0-1.06-.64 4 4 0 0 0-1.43-.23 4.35 4.35 0 0 0-1.47.22 3.64 3.64 0 0 0-1.11.63 5.32 5.32 0 0 0-.91 1c-.28.39-.57.83-.87 1.32l-.62 1.07h3.71a3 3 0 0 1 1.22-1.36 2.75 2.75 0 0 1 1.28 1.36h3.59l-.56-1q-.47-.79-.89-1.37z"/><path class="al am" d="M30.32 59.3a5.41 5.41 0 0 0-.88-1 3.41 3.41 0 0 0-1.06-.64 4 4 0 0 0-1.43-.23 4.35 4.35 0 0 0-1.47.22 3.64 3.64 0 0 0-1.11.63 5.32 5.32 0 0 0-.91 1c-.28.39-.57.83-.87 1.32l-.62 1.07h3.71a3 3 0 0 1 1.22-1.36 2.75 2.75 0 0 1 1.28 1.36h3.59l-.56-1q-.47-.79-.89-1.37z"/><path class="an" d="M74.63 58.88a4 4 0 0 0-1.41-.7 6.75 6.75 0 0 0-1.78-.3H58.28v3.75h3.45v-.89h9.65a.92.92 0 0 1 1 .91h3.48a3.92 3.92 0 0 0-.33-1.63 3.16 3.16 0 0 0-.9-1.14z"/><path class="ao ap" d="M74.63 58.88a4 4 0 0 0-1.41-.7 6.75 6.75 0 0 0-1.78-.3H58.28v3.75h3.45v-.89h9.65a.92.92 0 0 1 1 .91h3.48a3.92 3.92 0 0 0-.33-1.63 3.16 3.16 0 0 0-.9-1.14z"/><path class="aq" d="M93.39 60.71v-2.72H76.86v2.72h7.15v.94h3.07v-.94h6.31z"/><path class="ar as" d="M93.39 60.71v-2.72H76.86v2.72h7.15v.94h3.07v-.94h6.31z"/><path class="at" d="M51.27 59.3a5.53 5.53 0 0 0-.88-1 3.31 3.31 0 0 0-1.06-.64 4 4 0 0 0-1.43-.23 4.33 4.33 0 0 0-1.47.22 3.69 3.69 0 0 0-1.11.63 5.56 5.56 0 0 0-.91 1c-.28.39-.57.83-.87 1.32l-.61 1.07h3.71a2.94 2.94 0 0 1 1.22-1.36 2.75 2.75 0 0 1 1.25 1.34h3.59l-.57-1c-.29-.48-.59-.94-.86-1.35z"/><path class="au av" d="M51.27 59.3a5.53 5.53 0 0 0-.88-1 3.31 3.31 0 0 0-1.06-.64 4 4 0 0 0-1.43-.23 4.33 4.33 0 0 0-1.47.22 3.69 3.69 0 0 0-1.11.63 5.56 5.56 0 0 0-.91 1c-.28.39-.57.83-.87 1.32l-.61 1.07h3.71a2.94 2.94 0 0 1 1.22-1.36 2.75 2.75 0 0 1 1.25 1.34h3.59l-.57-1c-.29-.48-.59-.94-.86-1.35z"/><path class="aw" d="M145.11 57.9h3.14v3.75h-3.14z"/><path class="ax ay" d="M145.11 57.9h3.14v3.75h-3.14z"/><path class="az" d="M130.59 57.9h3.13v3.75h-3.13z"/><path class="ba bb" d="M130.59 57.9h3.13v3.75h-3.13z"/><path class="bc" d="M123.63 59.16a5.58 5.58 0 0 0-.89-1 3.5 3.5 0 0 0-1.07-.66l-.23-.06h-2.48l-.23.06a3.73 3.73 0 0 0-1.13.64 5.32 5.32 0 0 0-.92 1c-.29.4-.58.85-.88 1.34l-.69 1.17h3.75a3.22 3.22 0 0 1 1.31-1.49 3.06 3.06 0 0 1 1.36 1.49h3.63l-.64-1.1q-.47-.77-.89-1.39z"/><path class="bd be" d="M123.63 59.16a5.58 5.58 0 0 0-.89-1 3.5 3.5 0 0 0-1.07-.66l-.23-.06h-2.48l-.23.06a3.73 3.73 0 0 0-1.13.64 5.32 5.32 0 0 0-.92 1c-.29.4-.58.85-.88 1.34l-.69 1.17h3.75a3.22 3.22 0 0 1 1.31-1.49 3.06 3.06 0 0 1 1.36 1.49h3.63l-.64-1.1q-.47-.77-.89-1.39z"/><path class="bf" d="M152.11 58.2a3.76 3.76 0 0 0-1.47.83 3.54 3.54 0 0 0-.91 1.42 5.29 5.29 0 0 0-.27 1.2h3.2a1 1 0 0 1 .84-1h12.45v-2.77h-11.79a6.56 6.56 0 0 0-2.05.32z"/><path class="bg bh" d="M152.11 58.2a3.76 3.76 0 0 0-1.47.83 3.54 3.54 0 0 0-.91 1.42 5.29 5.29 0 0 0-.27 1.2h3.2a1 1 0 0 1 .84-1h12.45v-2.77h-11.79a6.56 6.56 0 0 0-2.05.32z"/><path class="bi" d="M111.01 58.88a4 4 0 0 0-1.41-.7 6.62 6.62 0 0 0-1.79-.3H94.65v3.75h3.46v-.89h9.65a.92.92 0 0 1 1 .91h3.48a2.85 2.85 0 0 0-.33-1.63 3.24 3.24 0 0 0-.9-1.14z"/><path class="bj bk" d="M111.01 58.88a4 4 0 0 0-1.41-.7 6.62 6.62 0 0 0-1.79-.3H94.65v3.75h3.46v-.89h9.65a.92.92 0 0 1 1 .91h3.48a2.85 2.85 0 0 0-.33-1.63 3.24 3.24 0 0 0-.9-1.14z"/><path class="bl" d="M4.11 60.75h12.43V58H4.69a6.63 6.63 0 0 0-2 .27 3.79 3.79 0 0 0-1.47.84 3.62 3.62 0 0 0-.91 1.42 5.32 5.32 0 0 0-.2 1.12h3.14a.94.94 0 0 1 .86-.9z"/><path class="bm bn" d="M4.11 60.75h12.43V58H4.69a6.63 6.63 0 0 0-2 .27 3.79 3.79 0 0 0-1.47.84 3.62 3.62 0 0 0-.91 1.42 5.32 5.32 0 0 0-.2 1.12h3.14a.94.94 0 0 1 .86-.9z"/></svg>