<svg id="Layer_1" xmlns="http://www.w3.org/2000/svg" viewBox="0 0 24 24"><style>.st0{fill:#dd0813}</style><path id="Phone" class="st0" d="M17.6 24c-.6 0-1.2-.1-1.8-.3C8.4 21.1 2.7 15.2.3 7.8c-.7-2.2 0-4.7 1.9-6.1L3.4.8C4 .3 4.8 0 5.6 0 7 0 8.3.8 9 2l2 3.9c.5 1 .3 2.2-.4 3l-.4.4c-.5.5-.6 1.2-.3 1.7.7 1.3 1.7 2.4 3.1 3.1.5.3 1.2.2 1.7-.2l.4-.4c.8-.7 2-.9 3-.4l3.9 2c1.8.9 2.6 3.2 1.6 5-.2.3-.4.7-.7.9l-1.4 1.4c-1 1-2.4 1.6-3.9 1.6zM5.6 2.2c-.3 0-.6.2-.9.4l-1.2.8C2.4 4.3 2 5.7 2.4 7.1c2.2 6.8 7.4 12.1 14.1 14.5 1.2.4 2.5.1 3.4-.8l1.4-1.4c.6-.6.6-1.5 0-2.1-.1-.1-.2-.2-.4-.3L17 15c-.1-.1-.3 0-.4.1l-.4.4c-1.2 1-2.8 1.3-4.2.6-1.7-.9-3.2-2.3-4-4-.8-1.5-.6-3.1.5-4.3l.4-.4c.1-.1.1-.2.1-.3V7L7 3.1c-.3-.5-.8-.9-1.4-.9z"/></svg>